{
  "accessors": [
    {
      "bufferView": 2,
      "componentType": 5126,
      "count": 38539,
      "max": [
        3.5467934608459473,
        2.2385575771331787,
        5.4776067733764648
      ],
      "min": [
        -3.2495737075805664,
        -2.4605393409729004,
        -4.5571346282958984
      ],
      "type": "VEC3"
    },
    {
      "bufferView": 2,
      "byteOffset": 462468,
      "componentType": 5126,
      "count": 38539,
      "max": [
        0.99998307228088379,
        0.99993860721588135,
        0.99993705749511719
      ],
      "min": [
        -0.99998116493225098,
        -0.99991345405578613,
        -0.99972772598266602
      ],
      "type": "VEC3"
    },
    {
      "bufferView": 3,
      "componentType": 5126,
      "count": 38539,
      "max": [
        0.99999994039535522,
        0.99999707937240601,
        0.99778330326080322,
        1
      ],
      "min": [
        -0.99887216091156006,
        -0.99998027086257935,
        -0.9996722936630249,
        -1
      ],
      "type": "VEC4"
    },
    {
      "bufferView": 3,
      "byteOffset": 616624,
      "componentType": 5126,
      "count": 38539,
      "max": [
        1,
        1,
        1,
        1
      ],
      "min": [
        0.99607843160629272,
        0.99607843160629272,
        0.99607843160629272,
        1
      ],
      "type": "VEC4"
    },
    {
      "bufferView": 1,
      "componentType": 5126,
      "count": 38539,
      "max": [
        1,
        1.0341919660568237
      ],
      "min": [
        0,
        0
      ],
      "type": "VEC2"
    },
    {
      "bufferView": 0,
      "componentType": 5125,
      "count": 229716,
      "max": [
        38538
      ],
      "min": [
        0
      ],
      "type": "SCALAR"
    }
  ],
  "asset": {
    "extras": {
      "author": "Goolakervin (https://sketchfab.com/Goolakervin77)",
      "license": "CC-BY-4.0 (http://creativecommons.org/licenses/by/4.0/)",
      "source": "https://sketchfab.com/models/d65ba3cffc8e4431859fdba6ecb9db93",
      "title": "Heart"
    },
    "generator": "Sketchfab-3.20.7",
    "version": "2.0"
  },
  "bufferViews": [
    {
      "buffer": 0,
      "byteLength": 918864,
      "byteOffset": 0,
      "name": "floatBufferViews",
      "target": 34963
    },
    {
      "buffer": 0,
      "byteLength": 308312,
      "byteOffset": 918864,
      "byteStride": 8,
      "name": "floatBufferViews",
      "target": 34962
    },
    {
      "buffer": 0,
      "byteLength": 924936,
      "byteOffset": 1227176,
      "byteStride": 12,
      "name": "floatBufferViews",
      "target": 34962
    },
    {
      "buffer": 0,
      "byteLength": 1233248,
      "byteOffset": 2152112,
      "byteStride": 16,
      "name": "floatBufferViews",
      "target": 34962
    }
  ],
  "buffers": [
    {
      "byteLength": 3385360,
      "uri": "scene.bin"
    }
  ],
  "images": [
    {
      "uri": "textures/Heart_normal.png"
    },
    {
      "uri": "textures/Heart_baseColor.jpeg"
    }
  ],
  "materials": [
    {
      "doubleSided": true,
      "emissiveFactor": [
        0,
        0,
        0
      ],
      "name": "Heart",
      "normalTexture": {
        "index": 0,
        "scale": 1,
        "texCoord": 0
      },
      "pbrMetallicRoughness": {
        "baseColorFactor": [
          1,
          1,
          1,
          1
        ],
        "baseColorTexture": {
          "index": 1,
          "texCoord": 0
        },
        "metallicFactor": 0.29556250569999998,
        "roughnessFactor": 0.37943749429999996
      }
    }
  ],
  "meshes": [
    {
      "name": "Hearth_Heart_0",
      "primitives": [
        {
          "attributes": {
            "COLOR_0": 3,
            "NORMAL": 1,
            "POSITION": 0,
            "TANGENT": 2,
            "TEXCOORD_0": 4
          },
          "indices": 5,
          "material": 0,
          "mode": 4
        }
      ]
    }
  ],
  "nodes": [
    {
      "children": [
        1
      ],
      "name": "RootNode (gltf orientation matrix)",
      "rotation": [
        -0.70710678118654746,
        -0,
        -0,
        0.70710678118654757
      ]
    },
    {
      "children": [
        2
      ],
      "name": "RootNode (model correction matrix)"
    },
    {
      "children": [
        3
      ],
      "matrix": [
        1,
        0,
        0,
        0,
        0,
        0,
        1,
        0,
        0,
        -1,
        0,
        0,
        0,
        0,
        0,
        1
      ],
      "name": "High Poly Heart beta .fbx"
    },
    {
      "children": [
        4
      ],
      "name": "RootNode"
    },
    {
      "children": [
        5
      ],
      "matrix": [
        100,
        0,
        0,
        0,
        -0,
        -1.6292067939183141e-05,
        -99.999999999998678,
        0,
        0,
        99.999999999998678,
        -1.6292067939183141e-05,
        0,
        -16.712253570556641,
        571.30487060546875,
        -1.3223138921603095e-05,
        1
      ],
      "name": "Hearth"
    },
    {
      "mesh": 0,
      "name": "Hearth_Heart_0"
    }
  ],
  "samplers": [
    {
      "magFilter": 9729,
      "minFilter": 9987,
      "wrapS": 10497,
      "wrapT": 10497
    }
  ],
  "scene": 0,
  "scenes": [
    {
      "name": "OSG_Scene",
      "nodes": [
        0
      ]
    }
  ],
  "textures": [
    {
      "sampler": 0,
      "source": 0
    },
    {
      "sampler": 0,
      "source": 1
    }
  ]
}

